<svg width="120" height="166" viewBox="0 0 120 166" fill="none" xmlns="http://www.w3.org/2000/svg">
<g id="Card Variant">
<g id="Card Back" filter="url(#filter0_d_2372_569)">
<path d="M5.73611 8.36621C5.73611 5.40253 8.13865 3 11.1023 3H109.304C112.268 3 114.67 5.40253 114.67 8.36621V152.181C114.67 155.144 112.268 157.547 109.304 157.547H11.1023C8.13865 157.547 5.73611 155.144 5.73611 152.181V8.36621Z" fill="white"/>
</g>
<g id="Vector">
<path d="M10.6902 23.4658C10.6902 23.079 10.8728 22.7782 11.5066 22.0584L15.9757 16.9448C17.1896 15.559 17.6516 14.6566 17.6516 13.6467C17.6516 12.132 16.5665 11.1222 14.9336 11.1222C13.5478 11.1222 12.5272 11.9494 12.2049 13.3459C12.0545 13.9153 11.7537 14.2054 11.3133 14.2054C10.7869 14.2054 10.4431 13.8079 10.4431 13.2278C10.4431 11.4015 12.2157 9.48924 15.0518 9.48924C17.6945 9.48924 19.5531 11.1651 19.5531 13.5286C19.5531 14.9251 19.0052 15.9457 17.0714 18.148L13.0966 22.6923V22.8212H19.0589C19.6283 22.8212 19.9935 23.1327 19.9935 23.6484C19.9935 24.1533 19.6497 24.4648 19.0589 24.4648H11.9686C11.1843 24.4648 10.6902 24.0888 10.6902 23.4658Z" fill="#211C1D"/>
<path d="M14.3395 39.4902C14.2228 39.4902 14.1282 39.3969 14.1282 39.2817C14.1282 38.8952 14.822 37.4517 14.9607 36.3219C14.9756 36.2004 14.7975 36.1553 14.732 36.2593C14.3748 36.8264 13.8876 37.6201 12.7006 37.5924L12.6776 37.5931C12.6622 37.5936 12.6468 37.5941 12.6313 37.5941C11.3423 37.5941 10.2974 36.4605 10.2974 35.0622C10.2974 33.6638 11.3423 32.5302 12.6313 32.5302C12.8829 32.5302 13.1252 32.5736 13.3523 32.6537C13.4052 32.6723 13.4592 32.6113 13.4329 32.5623C13.2318 32.1883 13.1163 31.7534 13.1163 31.2891C13.1163 29.9106 14.1208 28.7578 15.3953 28.7578C16.6698 28.7578 17.6743 29.9106 17.6743 31.2891C17.6743 31.7534 17.5588 32.1883 17.3577 32.5623C17.3313 32.6113 17.3853 32.6723 17.4383 32.6537C17.6654 32.5736 17.9077 32.5302 18.1593 32.5302C19.4483 32.5302 20.4932 33.6638 20.4932 35.0622C20.4932 36.4605 19.4483 37.5941 18.1593 37.5941C18.1438 37.5941 18.1284 37.5936 18.113 37.5931L18.09 37.5924C16.903 37.6201 16.4158 36.8264 16.0586 36.2593C15.9931 36.1553 15.815 36.2004 15.8299 36.3219C15.9686 37.4517 16.6624 38.8952 16.6624 39.2817C16.6624 39.3969 16.5678 39.4902 16.4511 39.4902H14.3395Z" fill="#211C1D"/>
<path d="M109.716 137.081C109.716 137.468 109.533 137.769 108.9 138.488L104.431 143.602C103.217 144.988 102.755 145.89 102.755 146.9C102.755 148.415 103.84 149.425 105.473 149.425C106.859 149.425 107.879 148.597 108.201 147.201C108.352 146.631 108.653 146.341 109.093 146.341C109.619 146.341 109.963 146.739 109.963 147.319C109.963 149.145 108.191 151.058 105.354 151.058C102.712 151.058 100.853 149.382 100.853 147.018C100.853 145.622 101.401 144.601 103.335 142.399L107.31 137.855V137.726H101.347C100.778 137.726 100.413 137.414 100.413 136.898C100.413 136.394 100.757 136.082 101.347 136.082H108.438C109.222 136.082 109.716 136.458 109.716 137.081Z" fill="#211C1D"/>
<path d="M106.067 121.057C106.184 121.057 106.278 121.15 106.278 121.265C106.278 121.652 105.584 123.095 105.446 124.225C105.431 124.346 105.609 124.391 105.674 124.288C106.032 123.72 106.519 122.927 107.706 122.954L107.729 122.954C107.744 122.953 107.759 122.953 107.775 122.953C109.064 122.953 110.109 124.086 110.109 125.485C110.109 126.883 109.064 128.017 107.775 128.017C107.523 128.017 107.281 127.973 107.054 127.893C107.001 127.874 106.947 127.935 106.973 127.985C107.175 128.359 107.29 128.793 107.29 129.258C107.29 130.636 106.285 131.789 105.011 131.789C103.737 131.789 102.732 130.636 102.732 129.258C102.732 128.793 102.847 128.359 103.049 127.985C103.075 127.935 103.021 127.874 102.968 127.893C102.741 127.973 102.499 128.017 102.247 128.017C100.958 128.017 99.9131 126.883 99.9131 125.485C99.9131 124.086 100.958 122.953 102.247 122.953C102.262 122.953 102.278 122.953 102.293 122.954L102.316 122.954C103.503 122.927 103.99 123.72 104.348 124.288C104.413 124.391 104.591 124.346 104.576 124.225C104.438 123.095 103.744 121.652 103.744 121.265C103.744 121.15 103.838 121.057 103.955 121.057H106.067Z" fill="#211C1D"/>
<path d="M57.7025 41.6367C57.4261 41.6367 57.2021 41.4127 57.2021 41.1363C57.2021 40.2087 58.8453 36.7444 59.1738 34.0328C59.2091 33.7412 58.7873 33.633 58.6322 33.8825C57.7861 35.2436 56.6323 37.1484 53.821 37.0819L53.7664 37.0836C53.73 37.0848 53.6935 37.0861 53.6568 37.0861C50.6039 37.0861 48.1292 34.3655 48.1292 31.0094C48.1292 27.6534 50.6039 24.9327 53.6568 24.9327C54.2528 24.9327 54.8266 25.0369 55.3644 25.229C55.4899 25.2738 55.6178 25.1273 55.5554 25.0097C55.079 24.112 54.8056 23.0683 54.8056 21.9539C54.8056 18.6457 57.1846 15.8789 60.2031 15.8789C63.2216 15.8789 65.6007 18.6457 65.6007 21.9539C65.6007 23.0683 65.3273 24.112 64.8509 25.0097C64.7885 25.1273 64.9164 25.2738 65.0419 25.229C65.5797 25.0369 66.1535 24.9327 66.7495 24.9327C69.8024 24.9327 72.2771 27.6534 72.2771 31.0094C72.2771 34.3655 69.8024 37.0861 66.7495 37.0861C66.7127 37.0861 66.6763 37.0848 66.6399 37.0836L66.5853 37.0819C63.774 37.1484 62.6202 35.2436 61.7741 33.8825C61.619 33.633 61.1972 33.7412 61.2325 34.0328C61.561 36.7443 63.2042 40.2088 63.2042 41.1363C63.2042 41.4127 62.9802 41.6367 62.7038 41.6367H57.7025Z" fill="#211C1D"/>
<path d="M57.7025 118.91C57.4261 118.91 57.2021 119.134 57.2021 119.41C57.2021 120.338 58.8453 123.802 59.1738 126.514C59.2091 126.806 58.7873 126.914 58.6322 126.664C57.7861 125.303 56.6323 123.398 53.821 123.465L53.7664 123.463C53.73 123.462 53.6935 123.461 53.6568 123.461C50.6039 123.461 48.1292 126.181 48.1292 129.537C48.1292 132.893 50.6039 135.614 53.6568 135.614C54.2528 135.614 54.8266 135.51 55.3644 135.318C55.4899 135.273 55.6178 135.419 55.5554 135.537C55.079 136.435 54.8056 137.479 54.8056 138.593C54.8056 141.901 57.1846 144.668 60.2031 144.668C63.2216 144.668 65.6007 141.901 65.6007 138.593C65.6007 137.479 65.3273 136.435 64.8509 135.537C64.7885 135.419 64.9164 135.273 65.0419 135.318C65.5797 135.51 66.1535 135.614 66.7495 135.614C69.8024 135.614 72.2771 132.893 72.2771 129.537C72.2771 126.181 69.8024 123.461 66.7495 123.461C66.7127 123.461 66.6763 123.462 66.6399 123.463L66.5853 123.465C63.774 123.398 62.6202 125.303 61.7741 126.664C61.619 126.914 61.1972 126.806 61.2325 126.514C61.561 123.802 63.2042 120.338 63.2042 119.411C63.2042 119.134 62.9802 118.91 62.7038 118.91H57.7025Z" fill="#211C1D"/>
</g>
</g>
<defs>
<filter id="filter0_d_2372_569" x="0.49724" y="0.380563" width="119.412" height="165.025" filterUnits="userSpaceOnUse" color-interpolation-filters="sRGB">
<feFlood flood-opacity="0" result="BackgroundImageFix"/>
<feColorMatrix in="SourceAlpha" type="matrix" values="0 0 0 0 0 0 0 0 0 0 0 0 0 0 0 0 0 0 127 0" result="hardAlpha"/>
<feOffset dy="2.61944"/>
<feGaussianBlur stdDeviation="2.61944"/>
<feComposite in2="hardAlpha" operator="out"/>
<feColorMatrix type="matrix" values="0 0 0 0 0.25098 0 0 0 0 0.270588 0 0 0 0 0.262745 0 0 0 1 0"/>
<feBlend mode="normal" in2="BackgroundImageFix" result="effect1_dropShadow_2372_569"/>
<feBlend mode="normal" in="SourceGraphic" in2="effect1_dropShadow_2372_569" result="shape"/>
</filter>
</defs>
</svg>
