<svg width="121" height="166" viewBox="0 0 121 166" fill="none" xmlns="http://www.w3.org/2000/svg">
<g id="Card Variant">
<g id="Card Back" filter="url(#filter0_d_2372_560)">
<path d="M5.93402 8.36621C5.93402 5.40253 8.33655 3 11.3002 3H109.502C112.466 3 114.868 5.40253 114.868 8.36621V152.181C114.868 155.144 112.466 157.547 109.502 157.547H11.3002C8.33656 157.547 5.93402 155.144 5.93402 152.181V8.36621Z" fill="white"/>
</g>
<g id="Vector">
<path d="M10.7376 22.284C10.7376 21.8006 11.0707 21.4891 11.5326 21.4891C11.8227 21.4891 12.0483 21.618 12.4458 22.0047C13.23 22.7782 14.025 23.1327 15.0133 23.1327C17.4412 23.1327 18.6766 20.9089 18.6766 17.0415H18.58C18.0428 18.4918 16.6677 19.362 14.9166 19.362C12.1664 19.362 10.2542 17.3423 10.2542 14.4417C10.2542 11.4552 12.2846 9.46776 15.3356 9.46776C18.6981 9.46776 20.4922 12.089 20.4922 16.9556C20.4922 22.0799 18.6337 24.7442 15.0455 24.7442C13.8638 24.7442 12.7466 24.4434 11.9086 23.8955C11.1888 23.4228 10.7376 22.8212 10.7376 22.284ZM18.3544 14.4847C18.3544 12.4758 17.0867 11.1007 15.2282 11.1007C13.3804 11.1007 12.1127 12.4758 12.1127 14.4739C12.1127 16.4292 13.3589 17.7398 15.2282 17.7398C17.1082 17.7398 18.3544 16.4399 18.3544 14.4847Z" fill="#211C1D"/>
<path d="M14.6474 39.4902C14.5347 39.4902 14.4433 39.4025 14.4433 39.2942C14.4433 39.0638 15.0213 37.549 15.1608 36.5298C15.1776 36.4072 15.0221 36.3584 14.9518 36.4581C14.6149 36.9359 14.2753 37.4469 13.3514 37.4591C11.6302 37.4817 10.6387 35.8466 11.1801 34.3587C11.4455 33.6291 15.097 28.7578 15.5932 28.7578C16.0893 28.7578 19.7408 33.6291 20.0063 34.3587C20.5477 35.8466 19.5561 37.4817 17.8349 37.4591C16.911 37.4469 16.5714 36.9359 16.2346 36.4581C16.1643 36.3584 16.0087 36.4072 16.0255 36.5298C16.1651 37.549 16.743 39.0638 16.743 39.2942C16.743 39.4025 16.6517 39.4902 16.539 39.4902H14.6474Z" fill="#211C1D"/>
<path d="M110.064 138.263C110.064 138.746 109.731 139.058 109.269 139.058C108.979 139.058 108.754 138.929 108.356 138.542C107.572 137.769 106.777 137.414 105.789 137.414C103.361 137.414 102.125 139.638 102.125 143.505H102.222C102.759 142.055 104.134 141.185 105.885 141.185C108.636 141.185 110.548 143.205 110.548 146.105C110.548 149.092 108.517 151.079 105.466 151.079C102.104 151.079 100.31 148.458 100.31 143.591C100.31 138.467 102.168 135.803 105.756 135.803C106.938 135.803 108.055 136.103 108.893 136.651C109.613 137.124 110.064 137.726 110.064 138.263ZM102.448 146.062C102.448 148.071 103.715 149.446 105.574 149.446C107.422 149.446 108.689 148.071 108.689 146.073C108.689 144.118 107.443 142.807 105.574 142.807C103.694 142.807 102.448 144.107 102.448 146.062Z" fill="#211C1D"/>
<path d="M106.155 121.057C106.267 121.057 106.359 121.144 106.359 121.253C106.359 121.483 105.781 122.998 105.641 124.017C105.624 124.14 105.78 124.188 105.85 124.089C106.187 123.611 106.527 123.1 107.451 123.088C109.172 123.065 110.163 124.7 109.622 126.188C109.357 126.918 105.705 131.789 105.209 131.789C104.713 131.789 101.061 126.918 100.796 126.188C100.254 124.7 101.246 123.065 102.967 123.088C103.891 123.1 104.231 123.611 104.567 124.089C104.638 124.188 104.793 124.14 104.777 124.017C104.637 122.998 104.059 121.483 104.059 121.253C104.059 121.144 104.15 121.057 104.263 121.057H106.155Z" fill="#211C1D"/>
<path d="M34.5643 41.6367C34.2991 41.6367 34.0842 41.4261 34.0842 41.1663C34.0842 40.6132 35.444 36.9778 35.7724 34.5316C35.8119 34.2375 35.4459 34.1203 35.2805 34.3595C34.4879 35.5063 33.6888 36.7327 31.515 36.7619C27.4651 36.8164 25.132 32.892 26.4059 29.3211C27.0305 27.5701 35.6223 15.8789 36.7897 15.8789C37.9571 15.8789 46.5489 27.5701 47.1735 29.3211C48.4474 32.892 46.1143 36.8164 42.0644 36.7619C39.8906 36.7327 39.0915 35.5063 38.2989 34.3595C38.1335 34.1203 37.7675 34.2375 37.807 34.5316C38.1354 36.9778 39.4952 40.6132 39.4952 41.1663C39.4952 41.4261 39.2803 41.6367 39.0151 41.6367H34.5643Z" fill="#211C1D"/>
<path d="M34.5643 84.5664C34.2991 84.5664 34.0842 84.777 34.0842 85.0368C34.0842 85.5899 35.444 89.2253 35.7724 91.6714C35.8119 91.9656 35.4459 92.0828 35.2805 91.8436C34.4879 90.6968 33.6888 89.4704 31.515 89.4412C27.4651 89.3867 25.132 93.3111 26.4059 96.882C27.0305 98.633 35.6223 110.324 36.7897 110.324C37.9571 110.324 46.5489 98.633 47.1735 96.882C48.4474 93.3111 46.1143 89.3867 42.0644 89.4412C39.8906 89.4704 39.0915 90.6968 38.2989 91.8436C38.1335 92.0828 37.7675 91.9656 37.807 91.6714C38.1354 89.2253 39.4952 85.5899 39.4952 85.0368C39.4952 84.777 39.2803 84.5664 39.0151 84.5664H34.5643Z" fill="#211C1D"/>
<path d="M81.787 41.6367C81.5217 41.6367 81.3068 41.4261 81.3068 41.1663C81.3068 40.6132 82.6666 36.9778 82.9951 34.5316C83.0345 34.2375 82.6685 34.1203 82.5031 34.3595C81.7105 35.5063 80.9115 36.7327 78.7377 36.7619C74.6877 36.8164 72.3546 32.892 73.6286 29.3211C74.2532 27.5701 82.8449 15.8789 84.0123 15.8789C85.1797 15.8789 93.7715 27.5701 94.3961 29.3211C95.67 32.892 93.337 36.8164 89.287 36.7619C87.1132 36.7327 86.3142 35.5063 85.5215 34.3595C85.3561 34.1203 84.9901 34.2375 85.0296 34.5316C85.358 36.9778 86.7179 40.6132 86.7179 41.1663C86.7179 41.4261 86.5029 41.6367 86.2377 41.6367H81.787Z" fill="#211C1D"/>
<path d="M34.5643 75.9804C34.2991 75.9804 34.0842 75.7699 34.0842 75.5101C34.0842 74.9569 35.444 71.3215 35.7724 68.8754C35.8119 68.5812 35.4459 68.464 35.2805 68.7033C34.4879 69.85 33.6888 71.0765 31.515 71.1056C27.4651 71.1601 25.132 67.2357 26.4059 63.6648C27.0305 61.9138 35.6223 50.2227 36.7897 50.2226C37.9571 50.2226 46.5489 61.9139 47.1735 63.6648C48.4474 67.2357 46.1143 71.1601 42.0644 71.1056C39.8906 71.0765 39.0915 69.85 38.2989 68.7033C38.1335 68.464 37.7675 68.5812 37.807 68.8754C38.1354 71.3215 39.4952 74.9569 39.4952 75.5101C39.4952 75.7699 39.2803 75.9804 39.0151 75.9804H34.5643Z" fill="#211C1D"/>
<path d="M34.5643 118.91C34.2991 118.91 34.0842 119.121 34.0842 119.38C34.0842 119.934 35.444 123.569 35.7724 126.015C35.8119 126.309 35.4459 126.427 35.2805 126.187C34.4879 125.041 33.6888 123.814 31.515 123.785C27.4651 123.73 25.132 127.655 26.4059 131.226C27.0305 132.977 35.6223 144.668 36.7897 144.668C37.9571 144.668 46.5489 132.977 47.1735 131.226C48.4474 127.655 46.1143 123.73 42.0644 123.785C39.8906 123.814 39.0915 125.041 38.2989 126.187C38.1335 126.427 37.7675 126.309 37.807 126.015C38.1354 123.569 39.4952 119.934 39.4952 119.38C39.4952 119.121 39.2803 118.91 39.0151 118.91H34.5643Z" fill="#211C1D"/>
<path d="M81.787 75.9804C81.5217 75.9804 81.3068 75.7699 81.3068 75.5101C81.3068 74.9569 82.6666 71.3215 82.9951 68.8754C83.0345 68.5812 82.6685 68.464 82.5031 68.7033C81.7105 69.85 80.9115 71.0765 78.7377 71.1056C74.6877 71.1601 72.3546 67.2357 73.6286 63.6648C74.2532 61.9138 82.8449 50.2227 84.0123 50.2226C85.1797 50.2226 93.7715 61.9139 94.3961 63.6648C95.67 67.2357 93.337 71.1601 89.287 71.1056C87.1132 71.0765 86.3142 69.85 85.5215 68.7033C85.3561 68.464 84.9901 68.5812 85.0296 68.8754C85.358 71.3215 86.7179 74.9569 86.7179 75.5101C86.7179 75.7699 86.5029 75.9804 86.2377 75.9804H81.787Z" fill="#211C1D"/>
<path d="M58.1756 93.1523C57.9104 93.1523 57.6955 92.9417 57.6955 92.6819C57.6955 92.1288 59.0553 88.4934 59.3837 86.0472C59.4232 85.7531 59.0572 85.6359 58.8918 85.8751C58.0992 87.0219 57.3001 88.2483 55.1263 88.2775C51.0764 88.3319 48.7433 84.4076 50.0172 80.8367C50.6418 79.0857 59.2336 67.3945 60.401 67.3945C61.5684 67.3945 70.1602 79.0857 70.7848 80.8367C72.0587 84.4076 69.7256 88.3319 65.6757 88.2775C63.5019 88.2483 62.7028 87.0219 61.9102 85.8751C61.7448 85.6359 61.3788 85.7531 61.4183 86.0472C61.7467 88.4934 63.1065 92.1288 63.1065 92.6819C63.1065 92.9417 62.8916 93.1523 62.6264 93.1523H58.1756Z" fill="#211C1D"/>
<path d="M81.787 118.91C81.5217 118.91 81.3068 119.121 81.3068 119.38C81.3068 119.934 82.6666 123.569 82.9951 126.015C83.0345 126.309 82.6685 126.427 82.5031 126.187C81.7105 125.041 80.9115 123.814 78.7377 123.785C74.6877 123.73 72.3546 127.655 73.6286 131.226C74.2532 132.977 82.8449 144.668 84.0123 144.668C85.1797 144.668 93.7715 132.977 94.3961 131.226C95.67 127.655 93.337 123.73 89.287 123.785C87.1132 123.814 86.3142 125.041 85.5215 126.187C85.3561 126.427 84.9901 126.309 85.0296 126.015C85.358 123.569 86.7179 119.934 86.7179 119.38C86.7179 119.121 86.5029 118.91 86.2377 118.91H81.787Z" fill="#211C1D"/>
<path d="M81.787 84.5664C81.5217 84.5664 81.3068 84.777 81.3068 85.0368C81.3068 85.5899 82.6666 89.2253 82.9951 91.6714C83.0345 91.9656 82.6685 92.0828 82.5031 91.8436C81.7105 90.6968 80.9115 89.4704 78.7377 89.4412C74.6877 89.3867 72.3546 93.3111 73.6286 96.882C74.2532 98.633 82.8449 110.324 84.0123 110.324C85.1797 110.324 93.7715 98.633 94.3961 96.882C95.67 93.3111 93.337 89.3867 89.287 89.4412C87.1132 89.4704 86.3142 90.6968 85.5215 91.8436C85.3561 92.0828 84.9901 91.9656 85.0296 91.6714C85.358 89.2253 86.7179 85.5899 86.7179 85.0368C86.7179 84.777 86.5029 84.5664 86.2377 84.5664H81.787Z" fill="#211C1D"/>
</g>
</g>
<defs>
<filter id="filter0_d_2372_560" x="0.695146" y="0.380563" width="119.412" height="165.025" filterUnits="userSpaceOnUse" color-interpolation-filters="sRGB">
<feFlood flood-opacity="0" result="BackgroundImageFix"/>
<feColorMatrix in="SourceAlpha" type="matrix" values="0 0 0 0 0 0 0 0 0 0 0 0 0 0 0 0 0 0 127 0" result="hardAlpha"/>
<feOffset dy="2.61944"/>
<feGaussianBlur stdDeviation="2.61944"/>
<feComposite in2="hardAlpha" operator="out"/>
<feColorMatrix type="matrix" values="0 0 0 0 0.25098 0 0 0 0 0.270588 0 0 0 0 0.262745 0 0 0 1 0"/>
<feBlend mode="normal" in2="BackgroundImageFix" result="effect1_dropShadow_2372_560"/>
<feBlend mode="normal" in="SourceGraphic" in2="effect1_dropShadow_2372_560" result="shape"/>
</filter>
</defs>
</svg>
