<svg width="120" height="166" viewBox="0 0 120 166" fill="none" xmlns="http://www.w3.org/2000/svg">
<g id="Card Variant">
<g id="Card Back" filter="url(#filter0_d_2372_572)">
<path d="M5.67014 8.36621C5.67014 5.40253 8.07267 3 11.0363 3H109.238C112.202 3 114.604 5.40253 114.604 8.36621V152.181C114.604 155.144 112.202 157.547 109.238 157.547H11.0363C8.07267 157.547 5.67014 155.144 5.67014 152.181V8.36621Z" fill="white"/>
</g>
<g id="Vector">
<path d="M11.168 17.4175V16.8804C11.168 12.4328 13.0695 9.48924 16.3891 9.48924C19.7086 9.48924 21.5994 12.4328 21.5994 16.8804V17.4175C21.5994 21.8543 19.6979 24.7764 16.3783 24.7764C13.0695 24.7764 11.168 21.8651 11.168 17.4175ZM13.048 16.8911V17.396C13.048 20.9734 14.3264 23.1542 16.3891 23.1542C18.4517 23.1542 19.7301 20.9734 19.7301 17.396V16.8911C19.7301 13.3137 18.441 11.1222 16.3783 11.1222C14.3264 11.1222 13.048 13.3137 13.048 16.8911Z" fill="#211C1D"/>
<path d="M9.68337 24.5723C9.10325 24.5723 8.74873 24.1748 8.74873 23.541V10.7247C8.74873 10.0908 9.10325 9.69336 9.68337 9.69336C10.2635 9.69336 10.6287 10.0908 10.6287 10.7247V23.541C10.6287 24.1748 10.2635 24.5723 9.68337 24.5723Z" fill="#211C1D"/>
<path d="M14.3835 39.4902C14.2708 39.4902 14.1795 39.4025 14.1795 39.2942C14.1795 39.0637 14.7574 37.549 14.897 36.5298C14.9137 36.4072 14.7582 36.3584 14.6879 36.4581C14.351 36.9359 14.0114 37.4469 13.0876 37.4591C11.3663 37.4817 10.3748 35.8466 10.9162 34.3587C11.1817 33.6291 14.8332 28.7578 15.3293 28.7578C15.8254 28.7578 19.477 33.6291 19.7424 34.3587C20.2838 35.8466 19.2923 37.4817 17.571 37.4591C16.6472 37.4469 16.3076 36.9359 15.9707 36.4581C15.9004 36.3584 15.7449 36.4072 15.7616 36.5298C15.9012 37.549 16.4792 39.0637 16.4792 39.2942C16.4792 39.4025 16.3878 39.4902 16.2751 39.4902H14.3835Z" fill="#211C1D"/>
<path d="M109.106 143.129V143.666C109.106 148.114 107.205 151.058 103.885 151.058C100.566 151.058 98.6749 148.114 98.6749 143.666V143.129C98.6749 138.692 100.576 135.77 103.896 135.77C107.205 135.77 109.106 138.682 109.106 143.129ZM107.226 143.656V143.151C107.226 139.573 105.948 137.393 103.885 137.393C101.823 137.393 100.544 139.573 100.544 143.151V143.656C100.544 147.233 101.833 149.425 103.896 149.425C105.948 149.425 107.226 147.233 107.226 143.656Z" fill="#211C1D"/>
<path d="M110.591 135.975C111.171 135.975 111.526 136.372 111.526 137.006V149.822C111.526 150.456 111.171 150.853 110.591 150.853C110.011 150.853 109.646 150.456 109.646 149.822V137.006C109.646 136.372 110.011 135.975 110.591 135.975Z" fill="#211C1D"/>
<path d="M105.891 121.057C106.003 121.057 106.095 121.144 106.095 121.253C106.095 121.483 105.517 122.998 105.377 124.017C105.361 124.14 105.516 124.188 105.586 124.089C105.923 123.611 106.263 123.1 107.187 123.088C108.908 123.065 109.9 124.7 109.358 126.188C109.093 126.918 105.441 131.789 104.945 131.789C104.449 131.789 100.797 126.918 100.532 126.188C99.9905 124.7 100.982 123.065 102.703 123.088C103.627 123.1 103.967 123.611 104.304 124.089C104.374 124.188 104.529 124.14 104.513 124.017C104.373 122.998 103.795 121.483 103.795 121.253C103.795 121.144 103.886 121.057 103.999 121.057H105.891Z" fill="#211C1D"/>
<path d="M34.3005 41.6367C34.0352 41.6367 33.8203 41.4261 33.8203 41.1663C33.8203 40.6132 35.1801 36.9778 35.5086 34.5316C35.548 34.2375 35.182 34.1203 35.0166 34.3595C34.224 35.5063 33.425 36.7327 31.2512 36.7619C27.2012 36.8163 24.8681 32.892 26.1421 29.321C26.7667 27.5701 35.3584 15.8789 36.5258 15.8789C37.6932 15.8789 46.285 27.5701 46.9096 29.321C48.1835 32.892 45.8505 36.8163 41.8005 36.7619C39.6267 36.7327 38.8277 35.5063 38.035 34.3595C37.8696 34.1203 37.5036 34.2375 37.5431 34.5316C37.8715 36.9778 39.2314 40.6132 39.2314 41.1663C39.2314 41.4261 39.0164 41.6367 38.7512 41.6367H34.3005Z" fill="#211C1D"/>
<path d="M34.3005 84.5664C34.0352 84.5664 33.8203 84.777 33.8203 85.0367C33.8203 85.5899 35.1801 89.2253 35.5086 91.6714C35.548 91.9656 35.182 92.0828 35.0166 91.8435C34.224 90.6968 33.425 89.4704 31.2512 89.4412C27.2012 89.3867 24.8681 93.3111 26.1421 96.882C26.7667 98.633 35.3584 110.324 36.5258 110.324C37.6932 110.324 46.285 98.633 46.9096 96.882C48.1835 93.3111 45.8505 89.3867 41.8005 89.4412C39.6267 89.4704 38.8277 90.6968 38.035 91.8435C37.8696 92.0828 37.5036 91.9656 37.5431 91.6714C37.8715 89.2253 39.2314 85.5899 39.2314 85.0367C39.2314 84.777 39.0164 84.5664 38.7512 84.5664H34.3005Z" fill="#211C1D"/>
<path d="M81.5231 41.6367C81.2579 41.6367 81.0429 41.4261 81.0429 41.1663C81.0429 40.6132 82.4028 36.9778 82.7312 34.5316C82.7707 34.2375 82.4047 34.1203 82.2393 34.3595C81.4466 35.5063 80.6476 36.7327 78.4738 36.7619C74.4238 36.8163 72.0908 32.892 73.3647 29.321C73.9893 27.5701 82.5811 15.8789 83.7485 15.8789C84.9158 15.8789 93.5077 27.5701 94.1322 29.321C95.4062 32.892 93.0731 36.8163 89.0231 36.7619C86.8493 36.7327 86.0503 35.5063 85.2577 34.3595C85.0923 34.1203 84.7263 34.2375 84.7657 34.5316C85.0941 36.9778 86.454 40.6132 86.454 41.1663C86.454 41.4261 86.2391 41.6367 85.9738 41.6367H81.5231Z" fill="#211C1D"/>
<path d="M34.3005 75.9804C34.0352 75.9804 33.8203 75.7699 33.8203 75.5101C33.8203 74.9569 35.1801 71.3215 35.5086 68.8754C35.548 68.5812 35.182 68.464 35.0166 68.7033C34.224 69.85 33.425 71.0764 31.2512 71.1056C27.2012 71.1601 24.8681 67.2357 26.1421 63.6648C26.7667 61.9138 35.3584 50.2226 36.5258 50.2226C37.6932 50.2226 46.285 61.9138 46.9096 63.6648C48.1835 67.2357 45.8505 71.1601 41.8005 71.1056C39.6267 71.0764 38.8277 69.85 38.035 68.7033C37.8696 68.464 37.5036 68.5812 37.5431 68.8754C37.8715 71.3215 39.2314 74.9569 39.2314 75.5101C39.2314 75.7699 39.0164 75.9804 38.7512 75.9804H34.3005Z" fill="#211C1D"/>
<path d="M34.3005 118.91C34.0352 118.91 33.8203 119.121 33.8203 119.38C33.8203 119.934 35.1801 123.569 35.5086 126.015C35.548 126.309 35.182 126.427 35.0166 126.187C34.224 125.041 33.425 123.814 31.2512 123.785C27.2012 123.73 24.8681 127.655 26.1421 131.226C26.7667 132.977 35.3584 144.668 36.5258 144.668C37.6932 144.668 46.285 132.977 46.9096 131.226C48.1835 127.655 45.8505 123.73 41.8005 123.785C39.6267 123.814 38.8277 125.041 38.035 126.187C37.8696 126.427 37.5036 126.309 37.5431 126.015C37.8715 123.569 39.2314 119.934 39.2314 119.38C39.2314 119.121 39.0164 118.91 38.7512 118.91H34.3005Z" fill="#211C1D"/>
<path d="M81.5231 75.9804C81.2579 75.9804 81.0429 75.7699 81.0429 75.5101C81.0429 74.9569 82.4028 71.3215 82.7312 68.8754C82.7707 68.5812 82.4047 68.464 82.2393 68.7033C81.4466 69.85 80.6476 71.0764 78.4738 71.1056C74.4238 71.1601 72.0908 67.2357 73.3647 63.6648C73.9893 61.9138 82.5811 50.2226 83.7485 50.2226C84.9158 50.2226 93.5077 61.9138 94.1322 63.6648C95.4062 67.2357 93.0731 71.1601 89.0231 71.1056C86.8493 71.0764 86.0503 69.85 85.2577 68.7033C85.0923 68.464 84.7263 68.5812 84.7657 68.8754C85.0941 71.3215 86.454 74.9569 86.454 75.5101C86.454 75.7699 86.2391 75.9804 85.9738 75.9804H81.5231Z" fill="#211C1D"/>
<path d="M57.9118 58.8086C57.6466 58.8086 57.4316 58.598 57.4316 58.3382C57.4316 57.785 58.7915 54.1497 59.1199 51.7035C59.1593 51.4094 58.7933 51.2921 58.6279 51.5314C57.8353 52.6781 57.0363 53.9046 54.8625 53.9338C50.8125 53.9882 48.4795 50.0639 49.7534 46.4929C50.378 44.742 58.9697 33.0508 60.1371 33.0508C61.3045 33.0508 69.8963 44.742 70.5209 46.4929C71.7948 50.0639 69.4618 53.9882 65.4118 53.9338C63.238 53.9046 62.439 52.6781 61.6464 51.5314C61.481 51.2921 61.1149 51.4094 61.1544 51.7035C61.4828 54.1497 62.8427 57.785 62.8427 58.3382C62.8427 58.598 62.6277 58.8086 62.3625 58.8086H57.9118Z" fill="#211C1D"/>
<path d="M57.9118 101.738C57.6466 101.738 57.4316 101.949 57.4316 102.209C57.4316 102.762 58.7915 106.397 59.1199 108.843C59.1593 109.137 58.7933 109.255 58.6279 109.015C57.8353 107.869 57.0363 106.642 54.8625 106.613C50.8125 106.559 48.4795 110.483 49.7534 114.054C50.378 115.805 58.9697 127.496 60.1371 127.496C61.3045 127.496 69.8963 115.805 70.5209 114.054C71.7948 110.483 69.4618 106.559 65.4118 106.613C63.238 106.642 62.439 107.869 61.6464 109.015C61.481 109.255 61.1149 109.137 61.1544 108.843C61.4828 106.397 62.8427 102.762 62.8427 102.209C62.8427 101.949 62.6277 101.738 62.3625 101.738H57.9118Z" fill="#211C1D"/>
<path d="M81.5231 118.91C81.2579 118.91 81.0429 119.121 81.0429 119.38C81.0429 119.934 82.4028 123.569 82.7312 126.015C82.7707 126.309 82.4047 126.427 82.2393 126.187C81.4466 125.041 80.6476 123.814 78.4738 123.785C74.4238 123.73 72.0908 127.655 73.3647 131.226C73.9893 132.977 82.5811 144.668 83.7485 144.668C84.9158 144.668 93.5077 132.977 94.1322 131.226C95.4062 127.655 93.0731 123.73 89.0231 123.785C86.8493 123.814 86.0503 125.041 85.2577 126.187C85.0923 126.427 84.7263 126.309 84.7657 126.015C85.0941 123.569 86.454 119.934 86.454 119.38C86.454 119.121 86.2391 118.91 85.9738 118.91H81.5231Z" fill="#211C1D"/>
<path d="M81.5231 84.5664C81.2579 84.5664 81.0429 84.777 81.0429 85.0367C81.0429 85.5899 82.4028 89.2253 82.7312 91.6714C82.7707 91.9656 82.4047 92.0828 82.2393 91.8435C81.4466 90.6968 80.6476 89.4704 78.4738 89.4412C74.4238 89.3867 72.0908 93.3111 73.3647 96.882C73.9893 98.633 82.5811 110.324 83.7485 110.324C84.9158 110.324 93.5077 98.633 94.1322 96.882C95.4062 93.3111 93.0731 89.3867 89.0231 89.4412C86.8493 89.4704 86.0503 90.6968 85.2577 91.8435C85.0923 92.0828 84.7263 91.9656 84.7657 91.6714C85.0941 89.2253 86.454 85.5899 86.454 85.0367C86.454 84.777 86.2391 84.5664 85.9738 84.5664H81.5231Z" fill="#211C1D"/>
</g>
</g>
<defs>
<filter id="filter0_d_2372_572" x="0.431261" y="0.380563" width="119.412" height="165.025" filterUnits="userSpaceOnUse" color-interpolation-filters="sRGB">
<feFlood flood-opacity="0" result="BackgroundImageFix"/>
<feColorMatrix in="SourceAlpha" type="matrix" values="0 0 0 0 0 0 0 0 0 0 0 0 0 0 0 0 0 0 127 0" result="hardAlpha"/>
<feOffset dy="2.61944"/>
<feGaussianBlur stdDeviation="2.61944"/>
<feComposite in2="hardAlpha" operator="out"/>
<feColorMatrix type="matrix" values="0 0 0 0 0.25098 0 0 0 0 0.270588 0 0 0 0 0.262745 0 0 0 1 0"/>
<feBlend mode="normal" in2="BackgroundImageFix" result="effect1_dropShadow_2372_572"/>
<feBlend mode="normal" in="SourceGraphic" in2="effect1_dropShadow_2372_572" result="shape"/>
</filter>
</defs>
</svg>
