<svg width="121" height="166" viewBox="0 0 121 166" fill="none" xmlns="http://www.w3.org/2000/svg">
<g id="Card Variant">
<g id="Card Back" filter="url(#filter0_d_2372_563)">
<path d="M5.86804 8.36621C5.86804 5.40253 8.27058 3 11.2343 3H109.436C112.4 3 114.802 5.40253 114.802 8.36621V152.181C114.802 155.144 112.4 157.547 109.436 157.547H11.2343C8.27058 157.547 5.86804 155.144 5.86804 152.181V8.36621Z" fill="white"/>
</g>
<g id="Vector">
<path d="M10.6717 22.284C10.6717 21.8006 11.0047 21.4891 11.4667 21.4891C11.7567 21.4891 11.9823 21.618 12.3798 22.0047C13.164 22.7782 13.959 23.1327 14.9474 23.1327C17.3753 23.1327 18.6107 20.9089 18.6107 17.0415H18.514C17.9769 18.4918 16.6018 19.362 14.8507 19.362C12.1005 19.362 10.1883 17.3423 10.1883 14.4417C10.1883 11.4552 12.2187 9.46776 15.2697 9.46776C18.6322 9.46776 20.4262 12.089 20.4262 16.9556C20.4262 22.0799 18.5677 24.7442 14.9796 24.7442C13.7979 24.7442 12.6806 24.4434 11.8427 23.8955C11.1229 23.4228 10.6717 22.8212 10.6717 22.284ZM18.2884 14.4847C18.2884 12.4758 17.0207 11.1007 15.1622 11.1007C13.3144 11.1007 12.0468 12.4758 12.0468 14.4739C12.0468 16.4292 13.293 17.7398 15.1622 17.7398C17.0422 17.7398 18.2884 16.4399 18.2884 14.4847Z" fill="#BC1E24"/>
<path d="M13.2384 29.2947C14.6964 29.317 15.2626 30.5814 15.4487 31.1776C15.4676 31.2379 15.5874 31.2379 15.6062 31.1776C15.7922 30.5814 16.358 29.317 17.8161 29.2947C19.7252 29.2655 21.1615 31.4029 19.8517 33.5492C18.6843 35.4623 15.5713 38.9536 15.5272 38.9536C15.4824 38.9536 12.3702 35.4625 11.2027 33.5492C9.89299 31.4029 11.3293 29.2655 13.2384 29.2947Z" fill="#BC1E24"/>
<path d="M109.998 138.263C109.998 138.746 109.665 139.058 109.203 139.058C108.913 139.058 108.688 138.929 108.29 138.542C107.506 137.769 106.711 137.414 105.723 137.414C103.295 137.414 102.059 139.638 102.059 143.505H102.156C102.693 142.055 104.068 141.185 105.819 141.185C108.57 141.185 110.482 143.205 110.482 146.105C110.482 149.092 108.451 151.079 105.4 151.079C102.038 151.079 100.244 148.458 100.244 143.591C100.244 138.467 102.102 135.803 105.691 135.803C106.872 135.803 107.99 136.103 108.827 136.651C109.547 137.124 109.998 137.726 109.998 138.263ZM102.382 146.062C102.382 148.071 103.649 149.446 105.508 149.446C107.356 149.446 108.623 148.071 108.623 146.073C108.623 144.118 107.377 142.807 105.508 142.807C103.628 142.807 102.382 144.107 102.382 146.062Z" fill="#BC1E24"/>
<path d="M107.432 131.252C105.974 131.23 105.408 129.965 105.221 129.369C105.203 129.309 105.083 129.309 105.064 129.369C104.878 129.965 104.312 131.23 102.854 131.252C100.945 131.281 99.5087 129.144 100.818 126.998C101.986 125.085 105.099 121.593 105.143 121.593C105.188 121.593 108.3 125.084 109.467 126.998C110.777 129.144 109.341 131.281 107.432 131.252Z" fill="#BC1E24"/>
<path d="M31.2076 17.087C34.7215 17.1408 36.086 20.1966 36.5346 21.6374C36.58 21.7831 36.8688 21.7831 36.9142 21.6373C37.3624 20.1965 38.726 17.1408 42.2399 17.087C46.8408 17.0165 50.3023 22.1818 47.1457 27.3687C44.3323 31.992 36.8299 40.4293 36.7237 40.4293C36.6158 40.4293 29.1154 31.9924 26.3017 27.3687C23.1452 22.1818 26.6067 17.0165 31.2076 17.087Z" fill="#BC1E24"/>
<path d="M31.2076 109.116C34.7215 109.062 36.086 106.006 36.5346 104.566C36.58 104.42 36.8688 104.42 36.9142 104.566C37.3624 106.007 38.726 109.062 42.2399 109.116C46.8408 109.187 50.3023 104.021 47.1457 98.8343C44.3323 94.2111 36.8299 85.7738 36.7237 85.7738C36.6158 85.7738 29.1154 94.2107 26.3017 98.8343C23.1452 104.021 26.6067 109.187 31.2076 109.116Z" fill="#BC1E24"/>
<path d="M78.4302 17.087C81.9441 17.1408 83.3086 20.1966 83.7572 21.6374C83.8026 21.7831 84.0915 21.7831 84.1368 21.6373C84.585 20.1965 85.9487 17.1408 89.4625 17.087C94.0634 17.0165 97.5249 22.1818 94.3684 27.3687C91.5549 31.992 84.0525 40.4293 83.9464 40.4293C83.8385 40.4293 76.3381 31.9924 73.5244 27.3687C70.3679 22.1818 73.8293 17.0165 78.4302 17.087Z" fill="#BC1E24"/>
<path d="M31.2076 51.4308C34.7215 51.4846 36.086 54.5403 36.5346 55.9811C36.58 56.1269 36.8688 56.1268 36.9142 55.9811C37.3624 54.5403 38.726 51.4846 42.2399 51.4308C46.8408 51.3602 50.3023 56.5255 47.1457 61.7125C44.3323 66.3357 36.8299 74.7731 36.7237 74.773C36.6158 74.773 29.1154 66.3362 26.3017 61.7125C23.1452 56.5255 26.6067 51.3602 31.2076 51.4308Z" fill="#BC1E24"/>
<path d="M31.2076 143.46C34.7215 143.406 36.086 140.35 36.5346 138.909C36.58 138.764 36.8688 138.764 36.9142 138.909C37.3624 140.35 38.726 143.406 42.2399 143.46C46.8408 143.53 50.3023 138.365 47.1457 133.178C44.3323 128.555 36.8299 120.118 36.7237 120.118C36.6158 120.118 29.1154 128.554 26.3017 133.178C23.1452 138.365 26.6067 143.53 31.2076 143.46Z" fill="#BC1E24"/>
<path d="M78.4302 51.4308C81.9441 51.4846 83.3086 54.5403 83.7572 55.9811C83.8026 56.1269 84.0915 56.1268 84.1368 55.9811C84.585 54.5403 85.9487 51.4846 89.4625 51.4308C94.0634 51.3602 97.5249 56.5255 94.3684 61.7125C91.5549 66.3357 84.0525 74.7731 83.9464 74.773C83.8385 74.773 76.3381 66.3362 73.5244 61.7125C70.3679 56.5255 73.8293 51.3602 78.4302 51.4308Z" fill="#BC1E24"/>
<path d="M54.8189 68.6026C58.3328 68.6564 59.6973 71.7122 60.1459 73.153C60.1913 73.2987 60.4801 73.2987 60.5255 73.1529C60.9737 71.7121 62.3373 68.6564 65.8512 68.6026C70.4521 68.5321 73.9136 73.6974 70.7571 78.8843C67.9436 83.5076 60.4412 91.9449 60.335 91.9449C60.2271 91.9449 52.7268 83.508 49.9131 78.8843C46.7566 73.6974 50.218 68.5321 54.8189 68.6026Z" fill="#BC1E24"/>
<path d="M78.4302 143.46C81.9441 143.406 83.3086 140.35 83.7572 138.909C83.8026 138.764 84.0915 138.764 84.1368 138.909C84.585 140.35 85.9487 143.406 89.4625 143.46C94.0634 143.53 97.5249 138.365 94.3684 133.178C91.5549 128.555 84.0525 120.118 83.9464 120.118C83.8385 120.118 76.3381 128.554 73.5244 133.178C70.3679 138.365 73.8293 143.53 78.4302 143.46Z" fill="#BC1E24"/>
<path d="M78.4302 109.116C81.9441 109.062 83.3086 106.006 83.7572 104.566C83.8026 104.42 84.0915 104.42 84.1368 104.566C84.585 106.007 85.9487 109.062 89.4625 109.116C94.0634 109.187 97.5249 104.021 94.3684 98.8343C91.5549 94.2111 84.0525 85.7738 83.9464 85.7738C83.8385 85.7738 76.3381 94.2107 73.5244 98.8343C70.3679 104.021 73.8293 109.187 78.4302 109.116Z" fill="#BC1E24"/>
</g>
</g>
<defs>
<filter id="filter0_d_2372_563" x="0.629167" y="0.380563" width="119.412" height="165.025" filterUnits="userSpaceOnUse" color-interpolation-filters="sRGB">
<feFlood flood-opacity="0" result="BackgroundImageFix"/>
<feColorMatrix in="SourceAlpha" type="matrix" values="0 0 0 0 0 0 0 0 0 0 0 0 0 0 0 0 0 0 127 0" result="hardAlpha"/>
<feOffset dy="2.61944"/>
<feGaussianBlur stdDeviation="2.61944"/>
<feComposite in2="hardAlpha" operator="out"/>
<feColorMatrix type="matrix" values="0 0 0 0 0.25098 0 0 0 0 0.270588 0 0 0 0 0.262745 0 0 0 1 0"/>
<feBlend mode="normal" in2="BackgroundImageFix" result="effect1_dropShadow_2372_563"/>
<feBlend mode="normal" in="SourceGraphic" in2="effect1_dropShadow_2372_563" result="shape"/>
</filter>
</defs>
</svg>
