<svg width="120" height="166" viewBox="0 0 120 166" fill="none" xmlns="http://www.w3.org/2000/svg">
<g id="Card Variant">
<g id="Card Back" filter="url(#filter0_d_2372_566)">
<path d="M5.80209 8.36621C5.80209 5.40253 8.20463 3 11.1683 3H109.37C112.334 3 114.736 5.40253 114.736 8.36621V152.181C114.736 155.144 112.334 157.547 109.37 157.547H11.1683C8.20463 157.547 5.80209 155.144 5.80209 152.181V8.36621Z" fill="white"/>
</g>
<g id="Vector">
<path d="M10.7561 23.4658C10.7561 23.079 10.9387 22.7782 11.5726 22.0584L16.0416 16.9448C17.2556 15.559 17.7175 14.6566 17.7175 13.6467C17.7175 12.132 16.6325 11.1222 14.9996 11.1222C13.6137 11.1222 12.5932 11.9494 12.2709 13.3459C12.1205 13.9153 11.8197 14.2054 11.3792 14.2054C10.8528 14.2054 10.509 13.8079 10.509 13.2278C10.509 11.4015 12.2816 9.48924 15.1177 9.48924C17.7605 9.48924 19.619 11.1651 19.619 13.5286C19.619 14.9251 19.0711 15.9457 17.1374 18.148L13.1625 22.6923V22.8212H19.1248C19.6942 22.8212 20.0595 23.1327 20.0595 23.6484C20.0595 24.1533 19.7157 24.4648 19.1248 24.4648H12.0345C11.2503 24.4648 10.7561 24.0888 10.7561 23.4658Z" fill="#BC1E24"/>
<path d="M13.1724 29.2947C14.6304 29.317 15.1966 30.5814 15.3828 31.1776C15.4016 31.2379 15.5214 31.2379 15.5403 31.1776C15.7262 30.5814 16.2921 29.317 17.7501 29.2947C19.6592 29.2655 21.0955 31.4029 19.7857 33.5492C18.6183 35.4623 15.5053 38.9536 15.4612 38.9536C15.4165 38.9536 12.3043 35.4625 11.1368 33.5492C9.82701 31.4029 11.2633 29.2655 13.1724 29.2947Z" fill="#BC1E24"/>
<path d="M109.782 137.081C109.782 137.468 109.599 137.769 108.966 138.488L104.497 143.602C103.283 144.988 102.821 145.89 102.821 146.9C102.821 148.415 103.906 149.425 105.539 149.425C106.924 149.425 107.945 148.597 108.267 147.201C108.418 146.631 108.719 146.341 109.159 146.341C109.685 146.341 110.029 146.739 110.029 147.319C110.029 149.145 108.257 151.058 105.42 151.058C102.778 151.058 100.919 149.382 100.919 147.018C100.919 145.622 101.467 144.601 103.401 142.399L107.376 137.855V137.726H101.413C100.844 137.726 100.479 137.414 100.479 136.898C100.479 136.394 100.822 136.082 101.413 136.082H108.504C109.288 136.082 109.782 136.458 109.782 137.081Z" fill="#BC1E24"/>
<path d="M107.366 131.252C105.908 131.23 105.342 129.965 105.155 129.369C105.137 129.309 105.017 129.309 104.998 129.369C104.812 129.965 104.246 131.23 102.788 131.252C100.879 131.281 99.4427 129.144 100.752 126.998C101.92 125.085 105.033 121.593 105.077 121.593C105.122 121.593 108.234 125.084 109.401 126.998C110.711 129.144 109.275 131.281 107.366 131.252Z" fill="#BC1E24"/>
<path d="M54.753 17.087C58.2668 17.1408 59.6314 20.1966 60.0799 21.6374C60.1253 21.7831 60.4142 21.7831 60.4595 21.6373C60.9077 20.1965 62.2714 17.1408 65.7852 17.087C70.3862 17.0165 73.8476 22.1818 70.6911 27.3687C67.8776 31.9919 60.3752 40.4293 60.2691 40.4293C60.1612 40.4293 52.6608 31.9924 49.8471 27.3687C46.6906 22.1818 50.152 17.0165 54.753 17.087Z" fill="#BC1E24"/>
<path d="M54.753 143.46C58.2668 143.406 59.6314 140.35 60.0799 138.909C60.1253 138.764 60.4142 138.764 60.4595 138.909C60.9077 140.35 62.2714 143.406 65.7852 143.46C70.3862 143.53 73.8476 138.365 70.6911 133.178C67.8776 128.555 60.3752 120.117 60.2691 120.118C60.1612 120.118 52.6608 128.554 49.8471 133.178C46.6906 138.365 50.152 143.53 54.753 143.46Z" fill="#BC1E24"/>
</g>
</g>
<defs>
<filter id="filter0_d_2372_566" x="0.563219" y="0.380563" width="119.412" height="165.025" filterUnits="userSpaceOnUse" color-interpolation-filters="sRGB">
<feFlood flood-opacity="0" result="BackgroundImageFix"/>
<feColorMatrix in="SourceAlpha" type="matrix" values="0 0 0 0 0 0 0 0 0 0 0 0 0 0 0 0 0 0 127 0" result="hardAlpha"/>
<feOffset dy="2.61944"/>
<feGaussianBlur stdDeviation="2.61944"/>
<feComposite in2="hardAlpha" operator="out"/>
<feColorMatrix type="matrix" values="0 0 0 0 0.25098 0 0 0 0 0.270588 0 0 0 0 0.262745 0 0 0 1 0"/>
<feBlend mode="normal" in2="BackgroundImageFix" result="effect1_dropShadow_2372_566"/>
<feBlend mode="normal" in="SourceGraphic" in2="effect1_dropShadow_2372_566" result="shape"/>
</filter>
</defs>
</svg>
