<svg width="121" height="166" viewBox="0 0 121 166" fill="none" xmlns="http://www.w3.org/2000/svg">
<g id="Card Variant">
<g id="Card Back" filter="url(#filter0_d_2372_557)">
<path d="M6 8.36621C6 5.40253 8.40253 3 11.3662 3H109.568C112.532 3 114.934 5.40253 114.934 8.36621V152.181C114.934 155.144 112.532 157.547 109.568 157.547H11.3662C8.40253 157.547 6 155.144 6 152.181V8.36621Z" fill="white"/>
</g>
<g id="Vector">
<path d="M10.3095 17.5571C10.3095 12.3898 12.2969 9.52145 15.8636 9.52145C17.0131 9.52145 18.1196 9.833 18.9361 10.3916C19.6451 10.8536 20.0748 11.4444 20.0748 11.9386C20.0748 12.4006 19.7418 12.7443 19.2798 12.7443C18.979 12.7443 18.7534 12.6262 18.3667 12.2501C17.5932 11.4874 16.7875 11.1436 15.8314 11.1436C13.4357 11.1436 12.168 13.2492 12.1358 17.2671H12.2217C12.7159 15.9564 14.2522 15.0326 15.928 15.0326C18.6567 15.0326 20.569 16.9985 20.569 19.8024C20.569 22.7567 18.5493 24.7656 15.5628 24.7656C13.7472 24.7656 12.2969 24.0136 11.416 22.6278C10.6748 21.4461 10.3095 19.7809 10.3095 17.5571ZM12.4044 19.8669C12.4044 21.7898 13.7365 23.1542 15.638 23.1542C17.4858 23.1542 18.7212 21.8543 18.7212 19.8776C18.7212 17.9224 17.475 16.6333 15.5628 16.6333C13.7043 16.6333 12.4044 17.9654 12.4044 19.8669Z" fill="#BC1E24"/>
<path d="M13.3704 29.2947C14.8284 29.317 15.3946 30.5814 15.5807 31.1776C15.5996 31.2379 15.7194 31.2379 15.7382 31.1776C15.9242 30.5814 16.49 29.317 17.9481 29.2947C19.8572 29.2655 21.2935 31.4029 19.9837 33.5492C18.8163 35.4623 15.7033 38.9536 15.6592 38.9536C15.6144 38.9536 12.5022 35.4625 11.3347 33.5492C10.025 31.4029 11.4613 29.2655 13.3704 29.2947Z" fill="#BC1E24"/>
<path d="M110.625 142.99C110.625 148.157 108.637 151.025 105.071 151.025C103.921 151.025 102.814 150.714 101.998 150.155C101.289 149.693 100.859 149.102 100.859 148.608C100.859 148.146 101.192 147.802 101.654 147.802C101.955 147.802 102.181 147.921 102.567 148.297C103.341 149.059 104.147 149.403 105.103 149.403C107.498 149.403 108.766 147.298 108.798 143.28H108.712C108.218 144.59 106.682 145.514 105.006 145.514C102.277 145.514 100.365 143.548 100.365 140.744C100.365 137.79 102.385 135.781 105.371 135.781C107.187 135.781 108.637 136.533 109.518 137.919C110.259 139.101 110.625 140.766 110.625 142.99ZM108.53 140.68C108.53 138.757 107.198 137.393 105.296 137.393C103.448 137.393 102.213 138.692 102.213 140.669C102.213 142.624 103.459 143.914 105.371 143.914C107.23 143.914 108.53 142.581 108.53 140.68Z" fill="#BC1E24"/>
<path d="M107.564 131.252C106.106 131.23 105.54 129.965 105.353 129.369C105.335 129.309 105.215 129.309 105.196 129.369C105.01 129.965 104.444 131.23 102.986 131.252C101.077 131.281 99.6406 129.144 100.95 126.998C102.118 125.085 105.231 121.593 105.275 121.593C105.32 121.593 108.432 125.084 109.599 126.998C110.909 129.144 109.473 131.281 107.564 131.252Z" fill="#BC1E24"/>
<path d="M31.3396 17.087C34.8535 17.1408 36.218 20.1966 36.6666 21.6374C36.712 21.7831 37.0008 21.7831 37.0462 21.6373C37.4944 20.1965 38.858 17.1408 42.3719 17.087C46.9728 17.0165 50.4343 22.1818 47.2777 27.3687C44.4643 31.9919 36.9619 40.4293 36.8557 40.4293C36.7478 40.4292 29.2474 31.9924 26.4337 27.3687C23.2772 22.1817 26.7387 17.0165 31.3396 17.087Z" fill="#BC1E24"/>
<path d="M31.3396 143.46C34.8535 143.406 36.218 140.35 36.6666 138.909C36.712 138.764 37.0008 138.764 37.0462 138.909C37.4944 140.35 38.858 143.406 42.3719 143.46C46.9728 143.53 50.4343 138.365 47.2777 133.178C44.4643 128.555 36.9619 120.117 36.8557 120.118C36.7478 120.118 29.2474 128.554 26.4337 133.178C23.2772 138.365 26.7387 143.53 31.3396 143.46Z" fill="#BC1E24"/>
<path d="M78.5622 17.087C82.0761 17.1408 83.4406 20.1966 83.8892 21.6374C83.9346 21.7831 84.2234 21.7831 84.2688 21.6373C84.717 20.1965 86.0806 17.1408 89.5945 17.087C94.1954 17.0165 97.6569 22.1818 94.5004 27.3687C91.6869 31.9919 84.1845 40.4293 84.0783 40.4293C83.9704 40.4292 76.4701 31.9924 73.6564 27.3687C70.4999 22.1817 73.9613 17.0165 78.5622 17.087Z" fill="#BC1E24"/>
<path d="M31.3396 68.6026C34.8535 68.6564 36.218 71.7122 36.6666 73.153C36.712 73.2987 37.0008 73.2987 37.0462 73.1529C37.4944 71.7121 38.858 68.6564 42.3719 68.6026C46.9728 68.5321 50.4343 73.6974 47.2777 78.8843C44.4643 83.5075 36.9619 91.9449 36.8557 91.9449C36.7478 91.9448 29.2474 83.508 26.4337 78.8843C23.2772 73.6973 26.7387 68.5321 31.3396 68.6026Z" fill="#BC1E24"/>
<path d="M78.5622 68.6026C82.0761 68.6564 83.4406 71.7122 83.8892 73.153C83.9346 73.2987 84.2234 73.2987 84.2688 73.1529C84.717 71.7121 86.0806 68.6564 89.5945 68.6026C94.1954 68.5321 97.6569 73.6974 94.5004 78.8843C91.6869 83.5075 84.1845 91.9449 84.0783 91.9449C83.9704 91.9448 76.4701 83.508 73.6564 78.8843C70.4999 73.6973 73.9613 68.5321 78.5622 68.6026Z" fill="#BC1E24"/>
<path d="M78.5622 143.46C82.0761 143.406 83.4406 140.35 83.8892 138.909C83.9346 138.764 84.2234 138.764 84.2688 138.909C84.717 140.35 86.0806 143.406 89.5945 143.46C94.1954 143.53 97.6569 138.365 94.5004 133.178C91.6869 128.555 84.1845 120.117 84.0783 120.118C83.9704 120.118 76.4701 128.554 73.6564 133.178C70.4999 138.365 73.9613 143.53 78.5622 143.46Z" fill="#BC1E24"/>
</g>
</g>
<defs>
<filter id="filter0_d_2372_557" x="0.761125" y="0.380563" width="119.412" height="165.025" filterUnits="userSpaceOnUse" color-interpolation-filters="sRGB">
<feFlood flood-opacity="0" result="BackgroundImageFix"/>
<feColorMatrix in="SourceAlpha" type="matrix" values="0 0 0 0 0 0 0 0 0 0 0 0 0 0 0 0 0 0 127 0" result="hardAlpha"/>
<feOffset dy="2.61944"/>
<feGaussianBlur stdDeviation="2.61944"/>
<feComposite in2="hardAlpha" operator="out"/>
<feColorMatrix type="matrix" values="0 0 0 0 0.25098 0 0 0 0 0.270588 0 0 0 0 0.262745 0 0 0 1 0"/>
<feBlend mode="normal" in2="BackgroundImageFix" result="effect1_dropShadow_2372_557"/>
<feBlend mode="normal" in="SourceGraphic" in2="effect1_dropShadow_2372_557" result="shape"/>
</filter>
</defs>
</svg>
